<?xml version="1.0" encoding="UTF-8" standalone="no"?>
<!DOCTYPE svg PUBLIC "-//W3C//DTD SVG 1.1//EN"
 "http://www.w3.org/Graphics/SVG/1.1/DTD/svg11.dtd">
<!-- Generated by graphviz version 13.1.0 (20250701.0955)
 -->
<!-- Title: dependency&#45;cruiser output Pages: 1 -->
<svg width="401pt" height="600pt"
 viewBox="0.00 0.00 401.00 600.00" xmlns="http://www.w3.org/2000/svg" xmlns:xlink="http://www.w3.org/1999/xlink">
<g id="graph0" class="graph" transform="scale(1 1) rotate(0) translate(4 596)">
<title>dependency&#45;cruiser output</title>
<polygon fill="white" stroke="none" points="-4,4 -4,-596 396.75,-596 396.75,4 -4,4"/>
<g id="clust1" class="cluster">
<title>cluster_src</title>
<path fill="#ffffff" stroke="black" stroke-width="2" d="M20,-8C20,-8 372.75,-8 372.75,-8 378.75,-8 384.75,-14 384.75,-20 384.75,-20 384.75,-572 384.75,-572 384.75,-578 378.75,-584 372.75,-584 372.75,-584 20,-584 20,-584 14,-584 8,-578 8,-572 8,-572 8,-20 8,-20 8,-14 14,-8 20,-8"/>
<text xml:space="preserve" text-anchor="middle" x="196.38" y="-571.45" font-family="Helvetica,sans-Serif" font-weight="bold" font-size="9.00">src</text>
</g>
<g id="clust2" class="cluster">
<title>cluster_src/atribut</title>
<path fill="#ffffff" stroke="black" stroke-width="2" d="M37,-16C37,-16 355.75,-16 355.75,-16 361.75,-16 367.75,-22 367.75,-28 367.75,-28 367.75,-57 367.75,-57 367.75,-63 361.75,-69 355.75,-69 355.75,-69 37,-69 37,-69 31,-69 25,-63 25,-57 25,-57 25,-28 25,-28 25,-22 31,-16 37,-16"/>
<text xml:space="preserve" text-anchor="middle" x="196.38" y="-56.45" font-family="Helvetica,sans-Serif" font-weight="bold" font-size="9.00">atribut</text>
</g>
<g id="clust3" class="cluster">
<title>cluster_src/auth</title>
<path fill="#ffffff" stroke="black" stroke-width="2" d="M40.75,-77C40.75,-77 352,-77 352,-77 358,-77 364,-83 364,-89 364,-89 364,-118 364,-118 364,-124 358,-130 352,-130 352,-130 40.75,-130 40.75,-130 34.75,-130 28.75,-124 28.75,-118 28.75,-118 28.75,-89 28.75,-89 28.75,-83 34.75,-77 40.75,-77"/>
<text xml:space="preserve" text-anchor="middle" x="196.38" y="-117.45" font-family="Helvetica,sans-Serif" font-weight="bold" font-size="9.00">auth</text>
</g>
<g id="clust4" class="cluster">
<title>cluster_src/workgroup</title>
<path fill="#ffffff" stroke="black" stroke-width="2" d="M28,-199C28,-199 364.75,-199 364.75,-199 370.75,-199 376.75,-205 376.75,-211 376.75,-211 376.75,-240 376.75,-240 376.75,-246 370.75,-252 364.75,-252 364.75,-252 28,-252 28,-252 22,-252 16,-246 16,-240 16,-240 16,-211 16,-211 16,-205 22,-199 28,-199"/>
<text xml:space="preserve" text-anchor="middle" x="196.38" y="-239.45" font-family="Helvetica,sans-Serif" font-weight="bold" font-size="9.00">workgroup</text>
</g>
<g id="clust5" class="cluster">
<title>cluster_src/task</title>
<path fill="#ffffff" stroke="black" stroke-width="2" d="M41.5,-321C41.5,-321 351.25,-321 351.25,-321 357.25,-321 363.25,-327 363.25,-333 363.25,-333 363.25,-362 363.25,-362 363.25,-368 357.25,-374 351.25,-374 351.25,-374 41.5,-374 41.5,-374 35.5,-374 29.5,-368 29.5,-362 29.5,-362 29.5,-333 29.5,-333 29.5,-327 35.5,-321 41.5,-321"/>
<text xml:space="preserve" text-anchor="middle" x="196.38" y="-361.45" font-family="Helvetica,sans-Serif" font-weight="bold" font-size="9.00">task</text>
</g>
<g id="clust6" class="cluster">
<title>cluster_src/customer</title>
<path fill="#ffffff" stroke="black" stroke-width="2" d="M31.38,-382C31.38,-382 361.38,-382 361.38,-382 367.38,-382 373.38,-388 373.38,-394 373.38,-394 373.38,-423 373.38,-423 373.38,-429 367.38,-435 361.38,-435 361.38,-435 31.38,-435 31.38,-435 25.38,-435 19.38,-429 19.38,-423 19.38,-423 19.38,-394 19.38,-394 19.38,-388 25.38,-382 31.38,-382"/>
<text xml:space="preserve" text-anchor="middle" x="196.38" y="-422.45" font-family="Helvetica,sans-Serif" font-weight="bold" font-size="9.00">customer</text>
</g>
<g id="clust7" class="cluster">
<title>cluster_src/inbox</title>
<path fill="#ffffff" stroke="black" stroke-width="2" d="M38.5,-443C38.5,-443 354.25,-443 354.25,-443 360.25,-443 366.25,-449 366.25,-455 366.25,-455 366.25,-484 366.25,-484 366.25,-490 360.25,-496 354.25,-496 354.25,-496 38.5,-496 38.5,-496 32.5,-496 26.5,-490 26.5,-484 26.5,-484 26.5,-455 26.5,-455 26.5,-449 32.5,-443 38.5,-443"/>
<text xml:space="preserve" text-anchor="middle" x="196.38" y="-483.45" font-family="Helvetica,sans-Serif" font-weight="bold" font-size="9.00">inbox</text>
</g>
<g id="clust8" class="cluster">
<title>cluster_src/projek</title>
<path fill="#ffffff" stroke="black" stroke-width="2" d="M37,-260C37,-260 355.75,-260 355.75,-260 361.75,-260 367.75,-266 367.75,-272 367.75,-272 367.75,-301 367.75,-301 367.75,-307 361.75,-313 355.75,-313 355.75,-313 37,-313 37,-313 31,-313 25,-307 25,-301 25,-301 25,-272 25,-272 25,-266 31,-260 37,-260"/>
<text xml:space="preserve" text-anchor="middle" x="196.38" y="-300.45" font-family="Helvetica,sans-Serif" font-weight="bold" font-size="9.00">projek</text>
</g>
<g id="clust9" class="cluster">
<title>cluster_src/role</title>
<path fill="#ffffff" stroke="black" stroke-width="2" d="M41.88,-504C41.88,-504 350.88,-504 350.88,-504 356.88,-504 362.88,-510 362.88,-516 362.88,-516 362.88,-545 362.88,-545 362.88,-551 356.88,-557 350.88,-557 350.88,-557 41.88,-557 41.88,-557 35.88,-557 29.88,-551 29.88,-545 29.88,-545 29.88,-516 29.88,-516 29.88,-510 35.88,-504 41.88,-504"/>
<text xml:space="preserve" text-anchor="middle" x="196.38" y="-544.45" font-family="Helvetica,sans-Serif" font-weight="bold" font-size="9.00">role</text>
</g>
<g id="clust10" class="cluster">
<title>cluster_src/user</title>
<path fill="#ffffff" stroke="black" stroke-width="2" d="M41.12,-138C41.12,-138 351.62,-138 351.62,-138 357.62,-138 363.62,-144 363.62,-150 363.62,-150 363.62,-179 363.62,-179 363.62,-185 357.62,-191 351.62,-191 351.62,-191 41.12,-191 41.12,-191 35.12,-191 29.12,-185 29.12,-179 29.12,-179 29.12,-150 29.12,-150 29.12,-144 35.12,-138 41.12,-138"/>
<text xml:space="preserve" text-anchor="middle" x="196.38" y="-178.45" font-family="Helvetica,sans-Serif" font-weight="bold" font-size="9.00">user</text>
</g>
<!-- src/atribut/atribut.controller.js -->
<g id="node1" class="node">
<title>src/atribut/atribut.controller.js</title>
<g id="a_node1"><a xlink:href="src/atribut/atribut.controller.js" xlink:title="atribut.controller.js">
<path fill="#f9c3c3" stroke="#ff0000" d="M117.08,-42.25C117.08,-42.25 39.17,-42.25 39.17,-42.25 36.08,-42.25 33,-39.17 33,-36.08 33,-36.08 33,-29.92 33,-29.92 33,-26.83 36.08,-23.75 39.17,-23.75 39.17,-23.75 117.08,-23.75 117.08,-23.75 120.17,-23.75 123.25,-26.83 123.25,-29.92 123.25,-29.92 123.25,-36.08 123.25,-36.08 123.25,-39.17 120.17,-42.25 117.08,-42.25"/>
<text xml:space="preserve" text-anchor="start" x="41" y="-29.7" font-family="Helvetica,sans-Serif" font-size="9.00">atribut.controller.js</text>
</a>
</g>
</g>
<!-- src/atribut/atribut.service.js -->
<g id="node2" class="node">
<title>src/atribut/atribut.service.js</title>
<g id="a_node2"><a xlink:href="src/atribut/atribut.service.js" xlink:title="atribut.service.js">
<path fill="#c3f9c3" stroke="#00aa00" d="M230.08,-42.25C230.08,-42.25 160.42,-42.25 160.42,-42.25 157.33,-42.25 154.25,-39.17 154.25,-36.08 154.25,-36.08 154.25,-29.92 154.25,-29.92 154.25,-26.83 157.33,-23.75 160.42,-23.75 160.42,-23.75 230.08,-23.75 230.08,-23.75 233.17,-23.75 236.25,-26.83 236.25,-29.92 236.25,-29.92 236.25,-36.08 236.25,-36.08 236.25,-39.17 233.17,-42.25 230.08,-42.25"/>
<text xml:space="preserve" text-anchor="start" x="162.25" y="-29.7" font-family="Helvetica,sans-Serif" font-size="9.00">atribut.service.js</text>
</a>
</g>
</g>
<!-- src/atribut/atribut.controller.js&#45;&gt;src/atribut/atribut.service.js -->
<g id="edge1" class="edge">
<title>src/atribut/atribut.controller.js&#45;&gt;src/atribut/atribut.service.js</title>
<path fill="none" stroke="#000000" stroke-width="2" stroke-opacity="0.200000" d="M123.74,-33C123.74,-33 144.74,-33 144.74,-33"/>
<polygon fill="#000000" fill-opacity="0.200000" stroke="#000000" stroke-width="2" stroke-opacity="0.200000" points="144.74,-35.1 150.74,-33 144.74,-30.9 144.74,-35.1"/>
</g>
<!-- src/atribut/atribut.repository.js -->
<g id="node3" class="node">
<title>src/atribut/atribut.repository.js</title>
<g id="a_node3"><a xlink:href="src/atribut/atribut.repository.js" xlink:title="atribut.repository.js">
<path fill="#c3c3f9" stroke="#0000ff" d="M353.58,-42.25C353.58,-42.25 273.42,-42.25 273.42,-42.25 270.33,-42.25 267.25,-39.17 267.25,-36.08 267.25,-36.08 267.25,-29.92 267.25,-29.92 267.25,-26.83 270.33,-23.75 273.42,-23.75 273.42,-23.75 353.58,-23.75 353.58,-23.75 356.67,-23.75 359.75,-26.83 359.75,-29.92 359.75,-29.92 359.75,-36.08 359.75,-36.08 359.75,-39.17 356.67,-42.25 353.58,-42.25"/>
<text xml:space="preserve" text-anchor="start" x="275.25" y="-29.7" font-family="Helvetica,sans-Serif" font-size="9.00">atribut.repository.js</text>
</a>
</g>
</g>
<!-- src/atribut/atribut.service.js&#45;&gt;src/atribut/atribut.repository.js -->
<g id="edge2" class="edge">
<title>src/atribut/atribut.service.js&#45;&gt;src/atribut/atribut.repository.js</title>
<path fill="none" stroke="#000000" stroke-width="2" stroke-opacity="0.200000" d="M236.61,-33C236.61,-33 258.09,-33 258.09,-33"/>
<polygon fill="#000000" fill-opacity="0.200000" stroke="#000000" stroke-width="2" stroke-opacity="0.200000" points="258.09,-35.1 264.09,-33 258.09,-30.9 258.09,-35.1"/>
</g>
<!-- src/auth/auth.controller.js -->
<g id="node4" class="node">
<title>src/auth/auth.controller.js</title>
<g id="a_node4"><a xlink:href="src/auth/auth.controller.js" xlink:title="auth.controller.js">
<path fill="#f9c3c3" stroke="#ff0000" d="M113.33,-103.25C113.33,-103.25 42.92,-103.25 42.92,-103.25 39.83,-103.25 36.75,-100.17 36.75,-97.08 36.75,-97.08 36.75,-90.92 36.75,-90.92 36.75,-87.83 39.83,-84.75 42.92,-84.75 42.92,-84.75 113.33,-84.75 113.33,-84.75 116.42,-84.75 119.5,-87.83 119.5,-90.92 119.5,-90.92 119.5,-97.08 119.5,-97.08 119.5,-100.17 116.42,-103.25 113.33,-103.25"/>
<text xml:space="preserve" text-anchor="start" x="44.75" y="-90.7" font-family="Helvetica,sans-Serif" font-size="9.00">auth.controller.js</text>
</a>
</g>
</g>
<!-- src/auth/auth.service.js -->
<g id="node5" class="node">
<title>src/auth/auth.service.js</title>
<g id="a_node5"><a xlink:href="src/auth/auth.service.js" xlink:title="auth.service.js">
<path fill="#c3f9c3" stroke="#00aa00" d="M226.33,-103.25C226.33,-103.25 164.17,-103.25 164.17,-103.25 161.08,-103.25 158,-100.17 158,-97.08 158,-97.08 158,-90.92 158,-90.92 158,-87.83 161.08,-84.75 164.17,-84.75 164.17,-84.75 226.33,-84.75 226.33,-84.75 229.42,-84.75 232.5,-87.83 232.5,-90.92 232.5,-90.92 232.5,-97.08 232.5,-97.08 232.5,-100.17 229.42,-103.25 226.33,-103.25"/>
<text xml:space="preserve" text-anchor="start" x="166" y="-90.7" font-family="Helvetica,sans-Serif" font-size="9.00">auth.service.js</text>
</a>
</g>
</g>
<!-- src/auth/auth.controller.js&#45;&gt;src/auth/auth.service.js -->
<g id="edge3" class="edge">
<title>src/auth/auth.controller.js&#45;&gt;src/auth/auth.service.js</title>
<path fill="none" stroke="#000000" stroke-width="2" stroke-opacity="0.200000" d="M119.75,-94C119.75,-94 148.64,-94 148.64,-94"/>
<polygon fill="#000000" fill-opacity="0.200000" stroke="#000000" stroke-width="2" stroke-opacity="0.200000" points="148.64,-96.1 154.64,-94 148.64,-91.9 148.64,-96.1"/>
</g>
<!-- src/auth/auth.repository.js -->
<g id="node10" class="node">
<title>src/auth/auth.repository.js</title>
<g id="a_node10"><a xlink:href="src/auth/auth.repository.js" xlink:title="auth.repository.js">
<path fill="#c3c3f9" stroke="#0000ff" d="M349.83,-103.25C349.83,-103.25 277.17,-103.25 277.17,-103.25 274.08,-103.25 271,-100.17 271,-97.08 271,-97.08 271,-90.92 271,-90.92 271,-87.83 274.08,-84.75 277.17,-84.75 277.17,-84.75 349.83,-84.75 349.83,-84.75 352.92,-84.75 356,-87.83 356,-90.92 356,-90.92 356,-97.08 356,-97.08 356,-100.17 352.92,-103.25 349.83,-103.25"/>
<text xml:space="preserve" text-anchor="start" x="279" y="-90.7" font-family="Helvetica,sans-Serif" font-size="9.00">auth.repository.js</text>
</a>
</g>
</g>
<!-- src/auth/auth.service.js&#45;&gt;src/auth/auth.repository.js -->
<g id="edge7" class="edge">
<title>src/auth/auth.service.js&#45;&gt;src/auth/auth.repository.js</title>
<path fill="none" stroke="#000000" stroke-width="2" stroke-opacity="0.200000" d="M232.99,-90.92C232.99,-90.92 261.75,-90.92 261.75,-90.92"/>
<polygon fill="#000000" fill-opacity="0.200000" stroke="#000000" stroke-width="2" stroke-opacity="0.200000" points="261.75,-93.02 267.75,-90.92 261.75,-88.82 261.75,-93.02"/>
</g>
<!-- src/user/user.repository.js -->
<g id="node11" class="node">
<title>src/user/user.repository.js</title>
<g id="a_node11"><a xlink:href="src/user/user.repository.js" xlink:title="user.repository.js">
<path fill="#c3c3f9" stroke="#0000ff" d="M349.46,-164.25C349.46,-164.25 277.54,-164.25 277.54,-164.25 274.46,-164.25 271.38,-161.17 271.38,-158.08 271.38,-158.08 271.38,-151.92 271.38,-151.92 271.38,-148.83 274.46,-145.75 277.54,-145.75 277.54,-145.75 349.46,-145.75 349.46,-145.75 352.54,-145.75 355.62,-148.83 355.62,-151.92 355.62,-151.92 355.62,-158.08 355.62,-158.08 355.62,-161.17 352.54,-164.25 349.46,-164.25"/>
<text xml:space="preserve" text-anchor="start" x="279.38" y="-151.7" font-family="Helvetica,sans-Serif" font-size="9.00">user.repository.js</text>
</a>
</g>
</g>
<!-- src/auth/auth.service.js&#45;&gt;src/user/user.repository.js -->
<g id="edge6" class="edge">
<title>src/auth/auth.service.js&#45;&gt;src/user/user.repository.js</title>
<path fill="none" stroke="#000000" stroke-width="2" stroke-opacity="0.200000" d="M232.78,-97.08C238.07,-97.08 241.75,-97.08 241.75,-97.08 241.75,-97.08 241.75,-148.83 241.75,-148.83 241.75,-148.83 261.91,-148.83 261.91,-148.83"/>
<polygon fill="#000000" fill-opacity="0.200000" stroke="#000000" stroke-width="2" stroke-opacity="0.200000" points="261.91,-150.93 267.91,-148.83 261.91,-146.73 261.91,-150.93"/>
</g>
<!-- src/workgroup/workgroup.controller.js -->
<g id="node6" class="node">
<title>src/workgroup/workgroup.controller.js</title>
<g id="a_node6"><a xlink:href="src/workgroup/workgroup.controller.js" xlink:title="workgroup.controller.js">
<path fill="#f9c3c3" stroke="#ff0000" d="M126.08,-225.25C126.08,-225.25 30.17,-225.25 30.17,-225.25 27.08,-225.25 24,-222.17 24,-219.08 24,-219.08 24,-212.92 24,-212.92 24,-209.83 27.08,-206.75 30.17,-206.75 30.17,-206.75 126.08,-206.75 126.08,-206.75 129.17,-206.75 132.25,-209.83 132.25,-212.92 132.25,-212.92 132.25,-219.08 132.25,-219.08 132.25,-222.17 129.17,-225.25 126.08,-225.25"/>
<text xml:space="preserve" text-anchor="start" x="32" y="-212.7" font-family="Helvetica,sans-Serif" font-size="9.00">workgroup.controller.js</text>
</a>
</g>
</g>
<!-- src/workgroup/workgroup.service.js -->
<g id="node7" class="node">
<title>src/workgroup/workgroup.service.js</title>
<g id="a_node7"><a xlink:href="src/workgroup/workgroup.service.js" xlink:title="workgroup.service.js">
<path fill="#c3f9c3" stroke="#00aa00" d="M239.08,-225.25C239.08,-225.25 151.42,-225.25 151.42,-225.25 148.33,-225.25 145.25,-222.17 145.25,-219.08 145.25,-219.08 145.25,-212.92 145.25,-212.92 145.25,-209.83 148.33,-206.75 151.42,-206.75 151.42,-206.75 239.08,-206.75 239.08,-206.75 242.17,-206.75 245.25,-209.83 245.25,-212.92 245.25,-212.92 245.25,-219.08 245.25,-219.08 245.25,-222.17 242.17,-225.25 239.08,-225.25"/>
<text xml:space="preserve" text-anchor="start" x="153.25" y="-212.7" font-family="Helvetica,sans-Serif" font-size="9.00">workgroup.service.js</text>
</a>
</g>
</g>
<!-- src/workgroup/workgroup.controller.js&#45;&gt;src/workgroup/workgroup.service.js -->
<g id="edge4" class="edge">
<title>src/workgroup/workgroup.controller.js&#45;&gt;src/workgroup/workgroup.service.js</title>
<path fill="none" stroke="#000000" stroke-width="2" stroke-opacity="0.200000" d="M132.57,-216C132.57,-216 135.73,-216 135.73,-216"/>
<polygon fill="#000000" fill-opacity="0.200000" stroke="#000000" stroke-width="2" stroke-opacity="0.200000" points="135.73,-218.1 141.73,-216 135.73,-213.9 135.73,-218.1"/>
</g>
<!-- src/workgroup/workgroup.service.js&#45;&gt;src/user/user.repository.js -->
<g id="edge24" class="edge">
<title>src/workgroup/workgroup.service.js&#45;&gt;src/user/user.repository.js</title>
<path fill="none" stroke="#000000" stroke-width="2" stroke-opacity="0.200000" d="M238.75,-206.47C238.75,-189.31 238.75,-155 238.75,-155 238.75,-155 261.86,-155 261.86,-155"/>
<polygon fill="#000000" fill-opacity="0.200000" stroke="#000000" stroke-width="2" stroke-opacity="0.200000" points="261.86,-157.1 267.86,-155 261.86,-152.9 261.86,-157.1"/>
</g>
<!-- src/projek/projek.repository.js -->
<g id="node20" class="node">
<title>src/projek/projek.repository.js</title>
<g id="a_node20"><a xlink:href="src/projek/projek.repository.js" xlink:title="projek.repository.js">
<path fill="#c3c3f9" stroke="#0000ff" d="M353.58,-286.25C353.58,-286.25 273.42,-286.25 273.42,-286.25 270.33,-286.25 267.25,-283.17 267.25,-280.08 267.25,-280.08 267.25,-273.92 267.25,-273.92 267.25,-270.83 270.33,-267.75 273.42,-267.75 273.42,-267.75 353.58,-267.75 353.58,-267.75 356.67,-267.75 359.75,-270.83 359.75,-273.92 359.75,-273.92 359.75,-280.08 359.75,-280.08 359.75,-283.17 356.67,-286.25 353.58,-286.25"/>
<text xml:space="preserve" text-anchor="start" x="275.25" y="-273.7" font-family="Helvetica,sans-Serif" font-size="9.00">projek.repository.js</text>
</a>
</g>
</g>
<!-- src/workgroup/workgroup.service.js&#45;&gt;src/projek/projek.repository.js -->
<g id="edge23" class="edge">
<title>src/workgroup/workgroup.service.js&#45;&gt;src/projek/projek.repository.js</title>
<path fill="none" stroke="#000000" stroke-width="2" stroke-opacity="0.200000" d="M245.49,-219.08C251.61,-219.08 255.75,-219.08 255.75,-219.08 255.75,-219.08 255.75,-275.15 255.75,-275.15 255.75,-275.15 257.86,-275.15 257.86,-275.15"/>
<polygon fill="#000000" fill-opacity="0.200000" stroke="#000000" stroke-width="2" stroke-opacity="0.200000" points="257.86,-277.25 263.86,-275.15 257.86,-273.05 257.86,-277.25"/>
</g>
<!-- src/workgroup/workgroup.repository.js -->
<g id="node27" class="node">
<title>src/workgroup/workgroup.repository.js</title>
<g id="a_node27"><a xlink:href="src/workgroup/workgroup.repository.js" xlink:title="workgroup.repository.js">
<path fill="#c3c3f9" stroke="#0000ff" d="M362.58,-225.25C362.58,-225.25 264.42,-225.25 264.42,-225.25 261.33,-225.25 258.25,-222.17 258.25,-219.08 258.25,-219.08 258.25,-212.92 258.25,-212.92 258.25,-209.83 261.33,-206.75 264.42,-206.75 264.42,-206.75 362.58,-206.75 362.58,-206.75 365.67,-206.75 368.75,-209.83 368.75,-212.92 368.75,-212.92 368.75,-219.08 368.75,-219.08 368.75,-222.17 365.67,-225.25 362.58,-225.25"/>
<text xml:space="preserve" text-anchor="start" x="266.25" y="-212.7" font-family="Helvetica,sans-Serif" font-size="9.00">workgroup.repository.js</text>
</a>
</g>
</g>
<!-- src/workgroup/workgroup.service.js&#45;&gt;src/workgroup/workgroup.repository.js -->
<g id="edge25" class="edge">
<title>src/workgroup/workgroup.service.js&#45;&gt;src/workgroup/workgroup.repository.js</title>
<path fill="none" stroke="#000000" stroke-width="2" stroke-opacity="0.200000" d="M245.74,-212.92C245.74,-212.92 248.85,-212.92 248.85,-212.92"/>
<polygon fill="#000000" fill-opacity="0.200000" stroke="#000000" stroke-width="2" stroke-opacity="0.200000" points="248.85,-215.02 254.85,-212.92 248.85,-210.82 248.85,-215.02"/>
</g>
<!-- src/task/task.controller.js -->
<g id="node8" class="node">
<title>src/task/task.controller.js</title>
<g id="a_node8"><a xlink:href="src/task/task.controller.js" xlink:title="task.controller.js">
<path fill="#f9c3c3" stroke="#ff0000" d="M112.58,-347.25C112.58,-347.25 43.67,-347.25 43.67,-347.25 40.58,-347.25 37.5,-344.17 37.5,-341.08 37.5,-341.08 37.5,-334.92 37.5,-334.92 37.5,-331.83 40.58,-328.75 43.67,-328.75 43.67,-328.75 112.58,-328.75 112.58,-328.75 115.67,-328.75 118.75,-331.83 118.75,-334.92 118.75,-334.92 118.75,-341.08 118.75,-341.08 118.75,-344.17 115.67,-347.25 112.58,-347.25"/>
<text xml:space="preserve" text-anchor="start" x="45.5" y="-334.7" font-family="Helvetica,sans-Serif" font-size="9.00">task.controller.js</text>
</a>
</g>
</g>
<!-- src/task/task.service.js -->
<g id="node9" class="node">
<title>src/task/task.service.js</title>
<g id="a_node9"><a xlink:href="src/task/task.service.js" xlink:title="task.service.js">
<path fill="#c3f9c3" stroke="#00aa00" d="M225.58,-347.25C225.58,-347.25 164.92,-347.25 164.92,-347.25 161.83,-347.25 158.75,-344.17 158.75,-341.08 158.75,-341.08 158.75,-334.92 158.75,-334.92 158.75,-331.83 161.83,-328.75 164.92,-328.75 164.92,-328.75 225.58,-328.75 225.58,-328.75 228.67,-328.75 231.75,-331.83 231.75,-334.92 231.75,-334.92 231.75,-341.08 231.75,-341.08 231.75,-344.17 228.67,-347.25 225.58,-347.25"/>
<text xml:space="preserve" text-anchor="start" x="166.75" y="-334.7" font-family="Helvetica,sans-Serif" font-size="9.00">task.service.js</text>
</a>
</g>
</g>
<!-- src/task/task.controller.js&#45;&gt;src/task/task.service.js -->
<g id="edge5" class="edge">
<title>src/task/task.controller.js&#45;&gt;src/task/task.service.js</title>
<path fill="none" stroke="#000000" stroke-width="2" stroke-opacity="0.200000" d="M119.09,-338C119.09,-338 149.39,-338 149.39,-338"/>
<polygon fill="#000000" fill-opacity="0.200000" stroke="#000000" stroke-width="2" stroke-opacity="0.200000" points="149.39,-340.1 155.39,-338 149.39,-335.9 149.39,-340.1"/>
</g>
<!-- src/task/task.service.js&#45;&gt;src/user/user.repository.js -->
<g id="edge19" class="edge">
<title>src/task/task.service.js&#45;&gt;src/user/user.repository.js</title>
<path fill="none" stroke="#000000" stroke-width="2" stroke-opacity="0.200000" d="M231.96,-333.38C242.28,-333.38 250.75,-333.38 250.75,-333.38 250.75,-333.38 250.75,-161.17 250.75,-161.17 250.75,-161.17 261.92,-161.17 261.92,-161.17"/>
<polygon fill="#000000" fill-opacity="0.200000" stroke="#000000" stroke-width="2" stroke-opacity="0.200000" points="261.92,-163.27 267.92,-161.17 261.92,-159.07 261.92,-163.27"/>
</g>
<!-- src/task/task.service.js&#45;&gt;src/projek/projek.repository.js -->
<g id="edge18" class="edge">
<title>src/task/task.service.js&#45;&gt;src/projek/projek.repository.js</title>
<path fill="none" stroke="#000000" stroke-width="2" stroke-opacity="0.200000" d="M231.99,-338C243.26,-338 252.75,-338 252.75,-338 252.75,-338 252.75,-282.55 252.75,-282.55 252.75,-282.55 257.81,-282.55 257.81,-282.55"/>
<polygon fill="#000000" fill-opacity="0.200000" stroke="#000000" stroke-width="2" stroke-opacity="0.200000" points="257.81,-284.65 263.81,-282.55 257.81,-280.45 257.81,-284.65"/>
</g>
<!-- src/task/task.repository.js -->
<g id="node24" class="node">
<title>src/task/task.repository.js</title>
<g id="a_node24"><a xlink:href="src/task/task.repository.js" xlink:title="task.repository.js">
<path fill="#c3c3f9" stroke="#0000ff" d="M349.08,-347.25C349.08,-347.25 277.92,-347.25 277.92,-347.25 274.83,-347.25 271.75,-344.17 271.75,-341.08 271.75,-341.08 271.75,-334.92 271.75,-334.92 271.75,-331.83 274.83,-328.75 277.92,-328.75 277.92,-328.75 349.08,-328.75 349.08,-328.75 352.17,-328.75 355.25,-331.83 355.25,-334.92 355.25,-334.92 355.25,-341.08 355.25,-341.08 355.25,-344.17 352.17,-347.25 349.08,-347.25"/>
<text xml:space="preserve" text-anchor="start" x="279.75" y="-334.7" font-family="Helvetica,sans-Serif" font-size="9.00">task.repository.js</text>
</a>
</g>
</g>
<!-- src/task/task.service.js&#45;&gt;src/task/task.repository.js -->
<g id="edge20" class="edge">
<title>src/task/task.service.js&#45;&gt;src/task/task.repository.js</title>
<path fill="none" stroke="#000000" stroke-width="2" stroke-opacity="0.200000" d="M232.02,-342.62C232.02,-342.62 262.36,-342.62 262.36,-342.62"/>
<polygon fill="#000000" fill-opacity="0.200000" stroke="#000000" stroke-width="2" stroke-opacity="0.200000" points="262.36,-344.73 268.36,-342.63 262.36,-340.53 262.36,-344.73"/>
</g>
<!-- src/customer/customer.controller.js -->
<g id="node12" class="node">
<title>src/customer/customer.controller.js</title>
<g id="a_node12"><a xlink:href="src/customer/customer.controller.js" xlink:title="customer.controller.js">
<path fill="#f9c3c3" stroke="#ff0000" d="M122.71,-408.25C122.71,-408.25 33.54,-408.25 33.54,-408.25 30.46,-408.25 27.38,-405.17 27.38,-402.08 27.38,-402.08 27.38,-395.92 27.38,-395.92 27.38,-392.83 30.46,-389.75 33.54,-389.75 33.54,-389.75 122.71,-389.75 122.71,-389.75 125.79,-389.75 128.88,-392.83 128.88,-395.92 128.88,-395.92 128.88,-402.08 128.88,-402.08 128.88,-405.17 125.79,-408.25 122.71,-408.25"/>
<text xml:space="preserve" text-anchor="start" x="35.38" y="-395.7" font-family="Helvetica,sans-Serif" font-size="9.00">customer.controller.js</text>
</a>
</g>
</g>
<!-- src/customer/customer.service.js -->
<g id="node13" class="node">
<title>src/customer/customer.service.js</title>
<g id="a_node13"><a xlink:href="src/customer/customer.service.js" xlink:title="customer.service.js">
<path fill="#c3f9c3" stroke="#00aa00" d="M235.71,-408.25C235.71,-408.25 154.79,-408.25 154.79,-408.25 151.71,-408.25 148.62,-405.17 148.62,-402.08 148.62,-402.08 148.62,-395.92 148.62,-395.92 148.62,-392.83 151.71,-389.75 154.79,-389.75 154.79,-389.75 235.71,-389.75 235.71,-389.75 238.79,-389.75 241.88,-392.83 241.88,-395.92 241.88,-395.92 241.88,-402.08 241.88,-402.08 241.88,-405.17 238.79,-408.25 235.71,-408.25"/>
<text xml:space="preserve" text-anchor="start" x="156.62" y="-395.7" font-family="Helvetica,sans-Serif" font-size="9.00">customer.service.js</text>
</a>
</g>
</g>
<!-- src/customer/customer.controller.js&#45;&gt;src/customer/customer.service.js -->
<g id="edge8" class="edge">
<title>src/customer/customer.controller.js&#45;&gt;src/customer/customer.service.js</title>
<path fill="none" stroke="#000000" stroke-width="2" stroke-opacity="0.200000" d="M129.16,-399C129.16,-399 139.42,-399 139.42,-399"/>
<polygon fill="#000000" fill-opacity="0.200000" stroke="#000000" stroke-width="2" stroke-opacity="0.200000" points="139.42,-401.1 145.42,-399 139.42,-396.9 139.42,-401.1"/>
</g>
<!-- src/customer/customer.repository.js -->
<g id="node14" class="node">
<title>src/customer/customer.repository.js</title>
<g id="a_node14"><a xlink:href="src/customer/customer.repository.js" xlink:title="customer.repository.js">
<path fill="#c3c3f9" stroke="#0000ff" d="M359.21,-408.25C359.21,-408.25 267.79,-408.25 267.79,-408.25 264.71,-408.25 261.62,-405.17 261.62,-402.08 261.62,-402.08 261.62,-395.92 261.62,-395.92 261.62,-392.83 264.71,-389.75 267.79,-389.75 267.79,-389.75 359.21,-389.75 359.21,-389.75 362.29,-389.75 365.38,-392.83 365.38,-395.92 365.38,-395.92 365.38,-402.08 365.38,-402.08 365.38,-405.17 362.29,-408.25 359.21,-408.25"/>
<text xml:space="preserve" text-anchor="start" x="269.62" y="-395.7" font-family="Helvetica,sans-Serif" font-size="9.00">customer.repository.js</text>
</a>
</g>
</g>
<!-- src/customer/customer.service.js&#45;&gt;src/customer/customer.repository.js -->
<g id="edge9" class="edge">
<title>src/customer/customer.service.js&#45;&gt;src/customer/customer.repository.js</title>
<path fill="none" stroke="#000000" stroke-width="2" stroke-opacity="0.200000" d="M242.33,-399C242.33,-399 252.11,-399 252.11,-399"/>
<polygon fill="#000000" fill-opacity="0.200000" stroke="#000000" stroke-width="2" stroke-opacity="0.200000" points="252.11,-401.1 258.11,-399 252.11,-396.9 252.11,-401.1"/>
</g>
<!-- src/inbox/inbox.controller.js -->
<g id="node15" class="node">
<title>src/inbox/inbox.controller.js</title>
<g id="a_node15"><a xlink:href="src/inbox/inbox.controller.js" xlink:title="inbox.controller.js">
<path fill="#f9c3c3" stroke="#ff0000" d="M115.58,-469.25C115.58,-469.25 40.67,-469.25 40.67,-469.25 37.58,-469.25 34.5,-466.17 34.5,-463.08 34.5,-463.08 34.5,-456.92 34.5,-456.92 34.5,-453.83 37.58,-450.75 40.67,-450.75 40.67,-450.75 115.58,-450.75 115.58,-450.75 118.67,-450.75 121.75,-453.83 121.75,-456.92 121.75,-456.92 121.75,-463.08 121.75,-463.08 121.75,-466.17 118.67,-469.25 115.58,-469.25"/>
<text xml:space="preserve" text-anchor="start" x="42.5" y="-456.7" font-family="Helvetica,sans-Serif" font-size="9.00">inbox.controller.js</text>
</a>
</g>
</g>
<!-- src/inbox/inbox.service.js -->
<g id="node16" class="node">
<title>src/inbox/inbox.service.js</title>
<g id="a_node16"><a xlink:href="src/inbox/inbox.service.js" xlink:title="inbox.service.js">
<path fill="#c3f9c3" stroke="#00aa00" d="M228.58,-469.25C228.58,-469.25 161.92,-469.25 161.92,-469.25 158.83,-469.25 155.75,-466.17 155.75,-463.08 155.75,-463.08 155.75,-456.92 155.75,-456.92 155.75,-453.83 158.83,-450.75 161.92,-450.75 161.92,-450.75 228.58,-450.75 228.58,-450.75 231.67,-450.75 234.75,-453.83 234.75,-456.92 234.75,-456.92 234.75,-463.08 234.75,-463.08 234.75,-466.17 231.67,-469.25 228.58,-469.25"/>
<text xml:space="preserve" text-anchor="start" x="163.75" y="-456.7" font-family="Helvetica,sans-Serif" font-size="9.00">inbox.service.js</text>
</a>
</g>
</g>
<!-- src/inbox/inbox.controller.js&#45;&gt;src/inbox/inbox.service.js -->
<g id="edge10" class="edge">
<title>src/inbox/inbox.controller.js&#45;&gt;src/inbox/inbox.service.js</title>
<path fill="none" stroke="#000000" stroke-width="2" stroke-opacity="0.200000" d="M122.07,-460C122.07,-460 146.28,-460 146.28,-460"/>
<polygon fill="#000000" fill-opacity="0.200000" stroke="#000000" stroke-width="2" stroke-opacity="0.200000" points="146.28,-462.1 152.28,-460 146.28,-457.9 146.28,-462.1"/>
</g>
<!-- src/inbox/inbox.repository.js -->
<g id="node17" class="node">
<title>src/inbox/inbox.repository.js</title>
<g id="a_node17"><a xlink:href="src/inbox/inbox.repository.js" xlink:title="inbox.repository.js">
<path fill="#c3c3f9" stroke="#0000ff" d="M352.08,-469.25C352.08,-469.25 274.92,-469.25 274.92,-469.25 271.83,-469.25 268.75,-466.17 268.75,-463.08 268.75,-463.08 268.75,-456.92 268.75,-456.92 268.75,-453.83 271.83,-450.75 274.92,-450.75 274.92,-450.75 352.08,-450.75 352.08,-450.75 355.17,-450.75 358.25,-453.83 358.25,-456.92 358.25,-456.92 358.25,-463.08 358.25,-463.08 358.25,-466.17 355.17,-469.25 352.08,-469.25"/>
<text xml:space="preserve" text-anchor="start" x="276.75" y="-456.7" font-family="Helvetica,sans-Serif" font-size="9.00">inbox.repository.js</text>
</a>
</g>
</g>
<!-- src/inbox/inbox.service.js&#45;&gt;src/inbox/inbox.repository.js -->
<g id="edge11" class="edge">
<title>src/inbox/inbox.service.js&#45;&gt;src/inbox/inbox.repository.js</title>
<path fill="none" stroke="#000000" stroke-width="2" stroke-opacity="0.200000" d="M234.95,-460C234.95,-460 259.37,-460 259.37,-460"/>
<polygon fill="#000000" fill-opacity="0.200000" stroke="#000000" stroke-width="2" stroke-opacity="0.200000" points="259.37,-462.1 265.37,-460 259.37,-457.9 259.37,-462.1"/>
</g>
<!-- src/projek/projek.controller.js -->
<g id="node18" class="node">
<title>src/projek/projek.controller.js</title>
<g id="a_node18"><a xlink:href="src/projek/projek.controller.js" xlink:title="projek.controller.js">
<path fill="#f9c3c3" stroke="#ff0000" d="M117.08,-286.25C117.08,-286.25 39.17,-286.25 39.17,-286.25 36.08,-286.25 33,-283.17 33,-280.08 33,-280.08 33,-273.92 33,-273.92 33,-270.83 36.08,-267.75 39.17,-267.75 39.17,-267.75 117.08,-267.75 117.08,-267.75 120.17,-267.75 123.25,-270.83 123.25,-273.92 123.25,-273.92 123.25,-280.08 123.25,-280.08 123.25,-283.17 120.17,-286.25 117.08,-286.25"/>
<text xml:space="preserve" text-anchor="start" x="41" y="-273.7" font-family="Helvetica,sans-Serif" font-size="9.00">projek.controller.js</text>
</a>
</g>
</g>
<!-- src/projek/projek.service.js -->
<g id="node19" class="node">
<title>src/projek/projek.service.js</title>
<g id="a_node19"><a xlink:href="src/projek/projek.service.js" xlink:title="projek.service.js">
<path fill="#c3f9c3" stroke="#00aa00" d="M230.08,-286.25C230.08,-286.25 160.42,-286.25 160.42,-286.25 157.33,-286.25 154.25,-283.17 154.25,-280.08 154.25,-280.08 154.25,-273.92 154.25,-273.92 154.25,-270.83 157.33,-267.75 160.42,-267.75 160.42,-267.75 230.08,-267.75 230.08,-267.75 233.17,-267.75 236.25,-270.83 236.25,-273.92 236.25,-273.92 236.25,-280.08 236.25,-280.08 236.25,-283.17 233.17,-286.25 230.08,-286.25"/>
<text xml:space="preserve" text-anchor="start" x="162.25" y="-273.7" font-family="Helvetica,sans-Serif" font-size="9.00">projek.service.js</text>
</a>
</g>
</g>
<!-- src/projek/projek.controller.js&#45;&gt;src/projek/projek.service.js -->
<g id="edge12" class="edge">
<title>src/projek/projek.controller.js&#45;&gt;src/projek/projek.service.js</title>
<path fill="none" stroke="#000000" stroke-width="2" stroke-opacity="0.200000" d="M123.74,-277C123.74,-277 144.74,-277 144.74,-277"/>
<polygon fill="#000000" fill-opacity="0.200000" stroke="#000000" stroke-width="2" stroke-opacity="0.200000" points="144.74,-279.1 150.74,-277 144.74,-274.9 144.74,-279.1"/>
</g>
<!-- src/projek/projek.service.js&#45;&gt;src/task/task.service.js -->
<g id="edge13" class="edge">
<title>src/projek/projek.service.js&#45;&gt;src/task/task.service.js</title>
<path fill="none" stroke="#000000" stroke-width="2" stroke-opacity="0.200000" d="M194.75,-286.53C194.75,-286.53 194.75,-319.31 194.75,-319.31"/>
<polygon fill="#000000" fill-opacity="0.200000" stroke="#000000" stroke-width="2" stroke-opacity="0.200000" points="192.65,-319.31 194.75,-325.31 196.85,-319.31 192.65,-319.31"/>
</g>
<!-- src/projek/projek.service.js&#45;&gt;src/user/user.repository.js -->
<g id="edge14" class="edge">
<title>src/projek/projek.service.js&#45;&gt;src/user/user.repository.js</title>
<path fill="none" stroke="#000000" stroke-width="2" stroke-opacity="0.200000" d="M236.62,-271.45C243.12,-271.45 247.75,-271.45 247.75,-271.45 247.75,-271.45 247.75,-158.08 247.75,-158.08 247.75,-158.08 262.09,-158.08 262.09,-158.08"/>
<polygon fill="#000000" fill-opacity="0.200000" stroke="#000000" stroke-width="2" stroke-opacity="0.200000" points="262.09,-160.18 268.09,-158.08 262.09,-155.98 262.09,-160.18"/>
</g>
<!-- src/projek/projek.service.js&#45;&gt;src/projek/projek.repository.js -->
<g id="edge15" class="edge">
<title>src/projek/projek.service.js&#45;&gt;src/projek/projek.repository.js</title>
<path fill="none" stroke="#000000" stroke-width="2" stroke-opacity="0.200000" d="M236.61,-278.85C236.61,-278.85 258.09,-278.85 258.09,-278.85"/>
<polygon fill="#000000" fill-opacity="0.200000" stroke="#000000" stroke-width="2" stroke-opacity="0.200000" points="258.09,-280.95 264.09,-278.85 258.09,-276.75 258.09,-280.95"/>
</g>
<!-- src/role/role.controller.js -->
<g id="node21" class="node">
<title>src/role/role.controller.js</title>
<g id="a_node21"><a xlink:href="src/role/role.controller.js" xlink:title="role.controller.js">
<path fill="#f9c3c3" stroke="#ff0000" d="M112.21,-530.25C112.21,-530.25 44.04,-530.25 44.04,-530.25 40.96,-530.25 37.88,-527.17 37.88,-524.08 37.88,-524.08 37.88,-517.92 37.88,-517.92 37.88,-514.83 40.96,-511.75 44.04,-511.75 44.04,-511.75 112.21,-511.75 112.21,-511.75 115.29,-511.75 118.38,-514.83 118.38,-517.92 118.38,-517.92 118.38,-524.08 118.38,-524.08 118.38,-527.17 115.29,-530.25 112.21,-530.25"/>
<text xml:space="preserve" text-anchor="start" x="45.88" y="-517.7" font-family="Helvetica,sans-Serif" font-size="9.00">role.controller.js</text>
</a>
</g>
</g>
<!-- src/role/role.service.js -->
<g id="node22" class="node">
<title>src/role/role.service.js</title>
<g id="a_node22"><a xlink:href="src/role/role.service.js" xlink:title="role.service.js">
<path fill="#c3f9c3" stroke="#00aa00" d="M225.21,-530.25C225.21,-530.25 165.29,-530.25 165.29,-530.25 162.21,-530.25 159.12,-527.17 159.12,-524.08 159.12,-524.08 159.12,-517.92 159.12,-517.92 159.12,-514.83 162.21,-511.75 165.29,-511.75 165.29,-511.75 225.21,-511.75 225.21,-511.75 228.29,-511.75 231.38,-514.83 231.38,-517.92 231.38,-517.92 231.38,-524.08 231.38,-524.08 231.38,-527.17 228.29,-530.25 225.21,-530.25"/>
<text xml:space="preserve" text-anchor="start" x="167.12" y="-517.7" font-family="Helvetica,sans-Serif" font-size="9.00">role.service.js</text>
</a>
</g>
</g>
<!-- src/role/role.controller.js&#45;&gt;src/role/role.service.js -->
<g id="edge16" class="edge">
<title>src/role/role.controller.js&#45;&gt;src/role/role.service.js</title>
<path fill="none" stroke="#000000" stroke-width="2" stroke-opacity="0.200000" d="M118.76,-521C118.76,-521 149.96,-521 149.96,-521"/>
<polygon fill="#000000" fill-opacity="0.200000" stroke="#000000" stroke-width="2" stroke-opacity="0.200000" points="149.96,-523.1 155.96,-521 149.96,-518.9 149.96,-523.1"/>
</g>
<!-- src/role/role.repository.js -->
<g id="node23" class="node">
<title>src/role/role.repository.js</title>
<g id="a_node23"><a xlink:href="src/role/role.repository.js" xlink:title="role.repository.js">
<path fill="#c3c3f9" stroke="#0000ff" d="M348.71,-530.25C348.71,-530.25 278.29,-530.25 278.29,-530.25 275.21,-530.25 272.12,-527.17 272.12,-524.08 272.12,-524.08 272.12,-517.92 272.12,-517.92 272.12,-514.83 275.21,-511.75 278.29,-511.75 278.29,-511.75 348.71,-511.75 348.71,-511.75 351.79,-511.75 354.88,-514.83 354.88,-517.92 354.88,-517.92 354.88,-524.08 354.88,-524.08 354.88,-527.17 351.79,-530.25 348.71,-530.25"/>
<text xml:space="preserve" text-anchor="start" x="280.12" y="-517.7" font-family="Helvetica,sans-Serif" font-size="9.00">role.repository.js</text>
</a>
</g>
</g>
<!-- src/role/role.service.js&#45;&gt;src/role/role.repository.js -->
<g id="edge17" class="edge">
<title>src/role/role.service.js&#45;&gt;src/role/role.repository.js</title>
<path fill="none" stroke="#000000" stroke-width="2" stroke-opacity="0.200000" d="M231.69,-521C231.69,-521 262.98,-521 262.98,-521"/>
<polygon fill="#000000" fill-opacity="0.200000" stroke="#000000" stroke-width="2" stroke-opacity="0.200000" points="262.98,-523.1 268.98,-521 262.98,-518.9 262.98,-523.1"/>
</g>
<!-- src/user/user.controller.js -->
<g id="node25" class="node">
<title>src/user/user.controller.js</title>
<g id="a_node25"><a xlink:href="src/user/user.controller.js" xlink:title="user.controller.js">
<path fill="#f9c3c3" stroke="#ff0000" d="M112.96,-164.25C112.96,-164.25 43.29,-164.25 43.29,-164.25 40.21,-164.25 37.12,-161.17 37.12,-158.08 37.12,-158.08 37.12,-151.92 37.12,-151.92 37.12,-148.83 40.21,-145.75 43.29,-145.75 43.29,-145.75 112.96,-145.75 112.96,-145.75 116.04,-145.75 119.12,-148.83 119.12,-151.92 119.12,-151.92 119.12,-158.08 119.12,-158.08 119.12,-161.17 116.04,-164.25 112.96,-164.25"/>
<text xml:space="preserve" text-anchor="start" x="45.12" y="-151.7" font-family="Helvetica,sans-Serif" font-size="9.00">user.controller.js</text>
</a>
</g>
</g>
<!-- src/user/user.service.js -->
<g id="node26" class="node">
<title>src/user/user.service.js</title>
<g id="a_node26"><a xlink:href="src/user/user.service.js" xlink:title="user.service.js">
<path fill="#c3f9c3" stroke="#00aa00" d="M225.96,-164.25C225.96,-164.25 164.54,-164.25 164.54,-164.25 161.46,-164.25 158.38,-161.17 158.38,-158.08 158.38,-158.08 158.38,-151.92 158.38,-151.92 158.38,-148.83 161.46,-145.75 164.54,-145.75 164.54,-145.75 225.96,-145.75 225.96,-145.75 229.04,-145.75 232.12,-148.83 232.12,-151.92 232.12,-151.92 232.12,-158.08 232.12,-158.08 232.12,-161.17 229.04,-164.25 225.96,-164.25"/>
<text xml:space="preserve" text-anchor="start" x="166.38" y="-151.7" font-family="Helvetica,sans-Serif" font-size="9.00">user.service.js</text>
</a>
</g>
</g>
<!-- src/user/user.controller.js&#45;&gt;src/user/user.service.js -->
<g id="edge21" class="edge">
<title>src/user/user.controller.js&#45;&gt;src/user/user.service.js</title>
<path fill="none" stroke="#000000" stroke-width="2" stroke-opacity="0.200000" d="M119.42,-155C119.42,-155 149.2,-155 149.2,-155"/>
<polygon fill="#000000" fill-opacity="0.200000" stroke="#000000" stroke-width="2" stroke-opacity="0.200000" points="149.2,-157.1 155.2,-155 149.2,-152.9 149.2,-157.1"/>
</g>
<!-- src/user/user.service.js&#45;&gt;src/user/user.repository.js -->
<g id="edge22" class="edge">
<title>src/user/user.service.js&#45;&gt;src/user/user.repository.js</title>
<path fill="none" stroke="#000000" stroke-width="2" stroke-opacity="0.200000" d="M232.34,-151.92C232.34,-151.92 262.15,-151.92 262.15,-151.92"/>
<polygon fill="#000000" fill-opacity="0.200000" stroke="#000000" stroke-width="2" stroke-opacity="0.200000" points="262.15,-154.02 268.15,-151.92 262.15,-149.82 262.15,-154.02"/>
</g>
</g>
</svg>
